<?xml version="1.0" standalone="no"?>
<!DOCTYPE svg PUBLIC "-//W3C//DTD SVG 20010904//EN"
 "http://www.w3.org/TR/2001/REC-SVG-20010904/DTD/svg10.dtd">
<svg version="1.0" xmlns="http://www.w3.org/2000/svg"
 width="1024.000000pt" height="1024.000000pt" viewBox="0 0 1024.000000 1024.000000"
 preserveAspectRatio="xMidYMid meet">
<metadata>
Created by potrace 1.14, written by Peter Selinger 2001-2017
</metadata>
<g transform="translate(0.000000,1024.000000) scale(0.100000,-0.100000)"
fill="#000000" stroke="none">
<path d="M3063 8088 c4 -376 7 -974 7 -1330 l0 -648 114 0 c63 0 121 -3 130
-6 13 -5 16 -25 16 -115 l0 -109 90 0 c106 0 101 -6 97 135 l-2 90 -90 3 -90
3 3 1329 4 1330 -143 0 -142 0 6 -682z"/>
<path d="M3740 8430 l0 -330 -105 0 -105 0 0 -710 0 -710 110 0 110 0 0 715 0
715 115 0 115 0 0 -715 0 -715 120 0 120 0 0 715 0 715 -112 0 -113 0 0 322 0
323 -127 3 -128 3 0 -331z"/>
<path d="M4410 8440 c0 -207 4 -320 10 -320 7 0 10 -342 10 -1005 l0 -1005
120 0 120 0 0 1325 0 1325 -130 0 -130 0 0 -320z"/>
<path d="M6407 8743 c-4 -3 -7 -51 -7 -105 l0 -98 -125 0 -125 0 -1 -187 c-1
-104 -3 -224 -5 -268 -1 -44 -3 -92 -3 -107 l-1 -27 -122 -3 -123 -3 4 -532 4
-533 -91 0 -91 0 -3 -102 -3 -103 -87 -3 -88 -3 -2 -1087 c-1 -1075 -1 -1122
6 -1129 2 -2 42 -7 90 -10 l86 -6 2 -66 c1 -36 2 -73 4 -81 1 -8 2 -27 3 -42
l1 -28 85 0 85 0 1 -172 c0 -95 0 -602 -1 -1125 l-2 -953 121 0 120 0 3 -107
3 -108 95 1 c52 1 148 2 213 3 l117 1 0 105 0 105 124 0 124 0 7 903 c4 496 6
1357 4 1912 -2 556 0 1675 5 2488 l9 1477 -215 0 c-118 0 -218 -3 -221 -7z
m180 -2145 c-4 -1063 -10 -2033 -14 -2155 l-6 -223 -324 0 -323 0 0 120 0 120
-65 0 c-36 0 -65 1 -65 3 0 1 -3 498 -7 1105 l-6 1102 66 0 66 0 3 103 3 102
118 3 117 3 0 529 0 530 125 0 125 0 0 295 0 295 97 0 96 0 -6 -1932z m-15
-3400 c2 -157 0 -284 -4 -281 -5 2 -7 201 -6 441 1 240 4 367 5 282 2 -85 4
-284 5 -442z"/>
<path d="M4210 6000 l0 -109 -111 -3 -111 -3 1 -712 2 -713 -121 0 -120 0 -1
170 c-1 94 -3 179 -4 190 -1 11 -3 254 -4 540 l-1 520 -108 0 -109 0 -6 -706
c-4 -389 -4 -710 -1 -715 3 -5 52 -9 110 -9 l104 0 0 -115 0 -115 -197 -2
-198 -3 -3 -1018 -2 -1017 95 0 95 0 0 -100 0 -100 110 0 110 0 0 -110 0 -110
130 0 130 0 0 105 0 105 110 0 110 0 0 105 0 105 75 0 75 0 0 1015 0 1015
-180 0 -180 0 0 120 0 119 108 3 107 3 3 713 2 712 90 0 90 0 0 115 0 115
-100 0 -100 0 0 -110z"/>
<path d="M10080 80 l0 -80 80 0 80 0 0 80 0 80 -80 0 -80 0 0 -80z"/>
</g>
</svg>
